<mxfile host="app.diagrams.net" modified="2024-05-28T22:30:49.108Z" agent="Mozilla/5.0 (Windows NT 10.0; Win64; x64) AppleWebKit/537.36 (KHTML, like Gecko) Chrome/125.0.0.0 Safari/537.36" etag="KOM6onEqQolbiS1T19CT" version="24.4.9" type="github">
  <diagram name="Page-1" id="2YBvvXClWsGukQMizWep">
    <mxGraphModel dx="988" dy="527" grid="1" gridSize="10" guides="1" tooltips="1" connect="1" arrows="1" fold="1" page="1" pageScale="1" pageWidth="850" pageHeight="1100" math="0" shadow="0">
      <root>
        <mxCell id="0" />
        <mxCell id="1" parent="0" />
        <mxCell id="sVpzyaRqVHjPGsMaTo8v-43" value="" style="rounded=0;whiteSpace=wrap;html=1;" vertex="1" parent="1">
          <mxGeometry x="100" y="410" width="620" height="290" as="geometry" />
        </mxCell>
        <mxCell id="sVpzyaRqVHjPGsMaTo8v-51" value="" style="rounded=0;whiteSpace=wrap;html=1;" vertex="1" parent="1">
          <mxGeometry x="180" y="530" width="460" height="150" as="geometry" />
        </mxCell>
        <mxCell id="sVpzyaRqVHjPGsMaTo8v-37" value="" style="rounded=0;whiteSpace=wrap;html=1;" vertex="1" parent="1">
          <mxGeometry x="180" y="340" width="460" height="60" as="geometry" />
        </mxCell>
        <mxCell id="sVpzyaRqVHjPGsMaTo8v-5" value="Interface Utilisateur" style="shape=umlLifeline;perimeter=lifelinePerimeter;whiteSpace=wrap;html=1;container=1;dropTarget=0;collapsible=0;recursiveResize=0;outlineConnect=0;portConstraint=eastwest;newEdgeStyle={&quot;curved&quot;:0,&quot;rounded&quot;:0};" vertex="1" parent="1">
          <mxGeometry x="310" y="20" width="100" height="680" as="geometry" />
        </mxCell>
        <mxCell id="sVpzyaRqVHjPGsMaTo8v-9" value="systeme" style="shape=umlLifeline;perimeter=lifelinePerimeter;whiteSpace=wrap;html=1;container=1;dropTarget=0;collapsible=0;recursiveResize=0;outlineConnect=0;portConstraint=eastwest;newEdgeStyle={&quot;curved&quot;:0,&quot;rounded&quot;:0};" vertex="1" parent="1">
          <mxGeometry x="420" y="20" width="100" height="680" as="geometry" />
        </mxCell>
        <mxCell id="sVpzyaRqVHjPGsMaTo8v-10" value="Base de donnees" style="shape=umlLifeline;perimeter=lifelinePerimeter;whiteSpace=wrap;html=1;container=1;dropTarget=0;collapsible=0;recursiveResize=0;outlineConnect=0;portConstraint=eastwest;newEdgeStyle={&quot;curved&quot;:0,&quot;rounded&quot;:0};" vertex="1" parent="1">
          <mxGeometry x="530" y="20" width="100" height="680" as="geometry" />
        </mxCell>
        <mxCell id="sVpzyaRqVHjPGsMaTo8v-14" value="" style="shape=umlLifeline;perimeter=lifelinePerimeter;whiteSpace=wrap;html=1;container=1;dropTarget=0;collapsible=0;recursiveResize=0;outlineConnect=0;portConstraint=eastwest;newEdgeStyle={&quot;curved&quot;:0,&quot;rounded&quot;:0};participant=umlActor;" vertex="1" parent="1">
          <mxGeometry x="240" y="20" width="20" height="680" as="geometry" />
        </mxCell>
        <mxCell id="sVpzyaRqVHjPGsMaTo8v-15" value="&lt;font style=&quot;font-size: 8px;&quot;&gt;clique sur reservation&lt;/font&gt;" style="html=1;verticalAlign=bottom;endArrow=block;curved=0;rounded=0;" edge="1" parent="1">
          <mxGeometry width="80" relative="1" as="geometry">
            <mxPoint x="250" y="110" as="sourcePoint" />
            <mxPoint x="359.5" y="110" as="targetPoint" />
          </mxGeometry>
        </mxCell>
        <mxCell id="sVpzyaRqVHjPGsMaTo8v-16" value="&lt;font style=&quot;font-size: 8px;&quot;&gt;acces page d&#39;accueil&lt;/font&gt;" style="html=1;verticalAlign=bottom;endArrow=block;curved=0;rounded=0;" edge="1" parent="1">
          <mxGeometry width="80" relative="1" as="geometry">
            <mxPoint x="250" y="90" as="sourcePoint" />
            <mxPoint x="359.5" y="90" as="targetPoint" />
          </mxGeometry>
        </mxCell>
        <mxCell id="sVpzyaRqVHjPGsMaTo8v-17" value="&lt;font style=&quot;font-size: 8px;&quot;&gt;demande formulaire&amp;nbsp;&lt;/font&gt;&lt;div style=&quot;font-size: 8px;&quot;&gt;&lt;font style=&quot;font-size: 8px;&quot;&gt;de reservation&lt;/font&gt;&lt;/div&gt;" style="html=1;verticalAlign=bottom;endArrow=block;curved=0;rounded=0;" edge="1" parent="1">
          <mxGeometry width="80" relative="1" as="geometry">
            <mxPoint x="360" y="120" as="sourcePoint" />
            <mxPoint x="469.5" y="120" as="targetPoint" />
          </mxGeometry>
        </mxCell>
        <mxCell id="sVpzyaRqVHjPGsMaTo8v-18" value="&lt;font style=&quot;font-size: 8px;&quot;&gt;affiche formulaire&amp;nbsp;&lt;/font&gt;&lt;div style=&quot;font-size: 8px;&quot;&gt;de reservation&lt;/div&gt;" style="html=1;verticalAlign=bottom;endArrow=open;dashed=1;endSize=8;curved=0;rounded=0;" edge="1" parent="1">
          <mxGeometry relative="1" as="geometry">
            <mxPoint x="469.5" y="150" as="sourcePoint" />
            <mxPoint x="360" y="150" as="targetPoint" />
          </mxGeometry>
        </mxCell>
        <mxCell id="sVpzyaRqVHjPGsMaTo8v-19" value="&lt;span style=&quot;font-size: 8px;&quot;&gt;remplir le formulaire&lt;/span&gt;" style="html=1;verticalAlign=bottom;endArrow=block;curved=0;rounded=0;" edge="1" parent="1">
          <mxGeometry width="80" relative="1" as="geometry">
            <mxPoint x="250" y="170" as="sourcePoint" />
            <mxPoint x="359.5" y="170" as="targetPoint" />
          </mxGeometry>
        </mxCell>
        <mxCell id="sVpzyaRqVHjPGsMaTo8v-20" value="&lt;span style=&quot;font-size: 8px;&quot;&gt;valide le formulaire&lt;/span&gt;" style="html=1;verticalAlign=bottom;endArrow=block;curved=0;rounded=0;" edge="1" parent="1">
          <mxGeometry width="80" relative="1" as="geometry">
            <mxPoint x="360" y="180" as="sourcePoint" />
            <mxPoint x="469.5" y="180" as="targetPoint" />
          </mxGeometry>
        </mxCell>
        <mxCell id="sVpzyaRqVHjPGsMaTo8v-25" value="&lt;font style=&quot;font-size: 8px;&quot;&gt;alternative&lt;/font&gt;" style="shape=umlFrame;whiteSpace=wrap;html=1;pointerEvents=0;width=60;height=15;" vertex="1" parent="1">
          <mxGeometry x="100" y="200" width="620" height="210" as="geometry" />
        </mxCell>
        <mxCell id="sVpzyaRqVHjPGsMaTo8v-27" value="&lt;span style=&quot;font-size: 8px;&quot;&gt;vérifie état connexion&lt;/span&gt;" style="html=1;verticalAlign=bottom;endArrow=block;curved=0;rounded=0;" edge="1" parent="1">
          <mxGeometry width="80" relative="1" as="geometry">
            <mxPoint x="470" y="190" as="sourcePoint" />
            <mxPoint x="579.5" y="190" as="targetPoint" />
          </mxGeometry>
        </mxCell>
        <mxCell id="sVpzyaRqVHjPGsMaTo8v-28" value="&lt;span style=&quot;font-size: 8px;&quot;&gt;Utilisateur connecté&lt;/span&gt;" style="html=1;verticalAlign=bottom;endArrow=open;dashed=1;endSize=8;curved=0;rounded=0;" edge="1" parent="1">
          <mxGeometry relative="1" as="geometry">
            <mxPoint x="579.5" y="220" as="sourcePoint" />
            <mxPoint x="470" y="220" as="targetPoint" />
          </mxGeometry>
        </mxCell>
        <mxCell id="sVpzyaRqVHjPGsMaTo8v-30" value="&lt;span style=&quot;font-size: 8px;&quot;&gt;vérifie disponibilité&lt;/span&gt;" style="html=1;verticalAlign=bottom;endArrow=block;curved=0;rounded=0;" edge="1" parent="1">
          <mxGeometry width="80" relative="1" as="geometry">
            <mxPoint x="470" y="240" as="sourcePoint" />
            <mxPoint x="579.5" y="240" as="targetPoint" />
          </mxGeometry>
        </mxCell>
        <mxCell id="sVpzyaRqVHjPGsMaTo8v-31" value="&lt;font style=&quot;font-size: 8px;&quot;&gt;alternative&lt;/font&gt;" style="shape=umlFrame;whiteSpace=wrap;html=1;pointerEvents=0;width=60;height=15;" vertex="1" parent="1">
          <mxGeometry x="180" y="250" width="460" height="90" as="geometry" />
        </mxCell>
        <mxCell id="sVpzyaRqVHjPGsMaTo8v-32" value="&lt;span style=&quot;font-size: 8px;&quot;&gt;table disponible&lt;/span&gt;" style="html=1;verticalAlign=bottom;endArrow=open;dashed=1;endSize=8;curved=0;rounded=0;" edge="1" parent="1">
          <mxGeometry relative="1" as="geometry">
            <mxPoint x="579.5" y="270" as="sourcePoint" />
            <mxPoint x="470" y="270" as="targetPoint" />
          </mxGeometry>
        </mxCell>
        <mxCell id="sVpzyaRqVHjPGsMaTo8v-33" value="&lt;span style=&quot;font-size: 8px;&quot;&gt;Enregistre la reservation&lt;/span&gt;" style="html=1;verticalAlign=bottom;endArrow=block;curved=0;rounded=0;" edge="1" parent="1">
          <mxGeometry width="80" relative="1" as="geometry">
            <mxPoint x="470" y="290" as="sourcePoint" />
            <mxPoint x="579.5" y="290" as="targetPoint" />
          </mxGeometry>
        </mxCell>
        <mxCell id="sVpzyaRqVHjPGsMaTo8v-34" value="&lt;span style=&quot;font-size: 8px;&quot;&gt;réservation enregisté&lt;/span&gt;" style="html=1;verticalAlign=bottom;endArrow=open;dashed=1;endSize=8;curved=0;rounded=0;" edge="1" parent="1">
          <mxGeometry relative="1" as="geometry">
            <mxPoint x="579.5" y="309.76" as="sourcePoint" />
            <mxPoint x="470" y="309.76" as="targetPoint" />
          </mxGeometry>
        </mxCell>
        <mxCell id="sVpzyaRqVHjPGsMaTo8v-35" value="&lt;span style=&quot;font-size: 8px;&quot;&gt;valide réservation&lt;/span&gt;" style="html=1;verticalAlign=bottom;endArrow=open;dashed=1;endSize=8;curved=0;rounded=0;" edge="1" parent="1">
          <mxGeometry relative="1" as="geometry">
            <mxPoint x="469.5" y="320" as="sourcePoint" />
            <mxPoint x="360" y="320" as="targetPoint" />
          </mxGeometry>
        </mxCell>
        <mxCell id="sVpzyaRqVHjPGsMaTo8v-36" value="&lt;span style=&quot;font-size: 8px;&quot;&gt;confirme réservation&lt;/span&gt;" style="html=1;verticalAlign=bottom;endArrow=open;dashed=1;endSize=8;curved=0;rounded=0;" edge="1" parent="1">
          <mxGeometry relative="1" as="geometry">
            <mxPoint x="359.5" y="330" as="sourcePoint" />
            <mxPoint x="250" y="330" as="targetPoint" />
          </mxGeometry>
        </mxCell>
        <mxCell id="sVpzyaRqVHjPGsMaTo8v-38" value="&lt;span style=&quot;font-size: 8px;&quot;&gt;table indisponible&lt;/span&gt;" style="html=1;verticalAlign=bottom;endArrow=open;dashed=1;endSize=8;curved=0;rounded=0;" edge="1" parent="1">
          <mxGeometry relative="1" as="geometry">
            <mxPoint x="579.5" y="360" as="sourcePoint" />
            <mxPoint x="470" y="360" as="targetPoint" />
          </mxGeometry>
        </mxCell>
        <mxCell id="sVpzyaRqVHjPGsMaTo8v-39" value="&lt;span style=&quot;font-size: 8px;&quot;&gt;annule reservation&lt;/span&gt;" style="html=1;verticalAlign=bottom;endArrow=open;dashed=1;endSize=8;curved=0;rounded=0;" edge="1" parent="1">
          <mxGeometry relative="1" as="geometry">
            <mxPoint x="469.5" y="370" as="sourcePoint" />
            <mxPoint x="360" y="370" as="targetPoint" />
          </mxGeometry>
        </mxCell>
        <mxCell id="sVpzyaRqVHjPGsMaTo8v-40" value="&lt;span style=&quot;font-size: 8px;&quot;&gt;réservation annulé&lt;/span&gt;" style="html=1;verticalAlign=bottom;endArrow=open;dashed=1;endSize=8;curved=0;rounded=0;" edge="1" parent="1">
          <mxGeometry relative="1" as="geometry">
            <mxPoint x="359.5" y="384.76" as="sourcePoint" />
            <mxPoint x="250" y="384.76" as="targetPoint" />
          </mxGeometry>
        </mxCell>
        <mxCell id="sVpzyaRqVHjPGsMaTo8v-41" value="&lt;font style=&quot;font-size: 8px;&quot;&gt;si table disponible&lt;/font&gt;" style="text;html=1;align=center;verticalAlign=middle;whiteSpace=wrap;rounded=0;" vertex="1" parent="1">
          <mxGeometry x="180" y="270" width="60" height="30" as="geometry" />
        </mxCell>
        <mxCell id="sVpzyaRqVHjPGsMaTo8v-42" value="&lt;font style=&quot;font-size: 8px;&quot;&gt;Sinon&lt;/font&gt;" style="text;html=1;align=center;verticalAlign=middle;whiteSpace=wrap;rounded=0;" vertex="1" parent="1">
          <mxGeometry x="180" y="340" width="60" height="30" as="geometry" />
        </mxCell>
        <mxCell id="sVpzyaRqVHjPGsMaTo8v-44" value="&lt;span style=&quot;font-size: 8px;&quot;&gt;donnée clients valides&lt;/span&gt;" style="html=1;verticalAlign=bottom;endArrow=open;dashed=1;endSize=8;curved=0;rounded=0;" edge="1" parent="1">
          <mxGeometry relative="1" as="geometry">
            <mxPoint x="579.5" y="510" as="sourcePoint" />
            <mxPoint x="470" y="510" as="targetPoint" />
          </mxGeometry>
        </mxCell>
        <mxCell id="sVpzyaRqVHjPGsMaTo8v-45" value="&lt;span style=&quot;font-size: 8px;&quot;&gt;affiche&lt;/span&gt;&lt;div&gt;&lt;span style=&quot;font-size: 8px;&quot;&gt;formulaire connexion&lt;/span&gt;&lt;/div&gt;" style="html=1;verticalAlign=bottom;endArrow=open;dashed=1;endSize=8;curved=0;rounded=0;" edge="1" parent="1">
          <mxGeometry x="-0.0959" relative="1" as="geometry">
            <mxPoint x="469.5" y="440" as="sourcePoint" />
            <mxPoint x="360" y="440" as="targetPoint" />
            <mxPoint as="offset" />
          </mxGeometry>
        </mxCell>
        <mxCell id="sVpzyaRqVHjPGsMaTo8v-46" value="&lt;font style=&quot;font-size: 8px;&quot;&gt;alternative&lt;/font&gt;" style="shape=umlFrame;whiteSpace=wrap;html=1;pointerEvents=0;width=60;height=15;" vertex="1" parent="1">
          <mxGeometry x="180" y="450" width="460" height="80" as="geometry" />
        </mxCell>
        <mxCell id="sVpzyaRqVHjPGsMaTo8v-47" value="&lt;span style=&quot;font-size: 8px;&quot;&gt;remplir le formulaire&lt;/span&gt;" style="html=1;verticalAlign=bottom;endArrow=block;curved=0;rounded=0;" edge="1" parent="1">
          <mxGeometry width="80" relative="1" as="geometry">
            <mxPoint x="250" y="470" as="sourcePoint" />
            <mxPoint x="359.5" y="470" as="targetPoint" />
          </mxGeometry>
        </mxCell>
        <mxCell id="sVpzyaRqVHjPGsMaTo8v-48" value="&lt;span style=&quot;font-size: 8px;&quot;&gt;envoie le formulaire&lt;/span&gt;" style="html=1;verticalAlign=bottom;endArrow=block;curved=0;rounded=0;" edge="1" parent="1">
          <mxGeometry width="80" relative="1" as="geometry">
            <mxPoint x="360" y="480" as="sourcePoint" />
            <mxPoint x="469.5" y="480" as="targetPoint" />
          </mxGeometry>
        </mxCell>
        <mxCell id="sVpzyaRqVHjPGsMaTo8v-49" value="&lt;span style=&quot;font-size: 8px;&quot;&gt;vérifie données&lt;/span&gt;&lt;div&gt;&lt;span style=&quot;font-size: 8px;&quot;&gt;&amp;nbsp;de connexion&lt;/span&gt;&lt;/div&gt;" style="html=1;verticalAlign=bottom;endArrow=block;curved=0;rounded=0;" edge="1" parent="1">
          <mxGeometry width="80" relative="1" as="geometry">
            <mxPoint x="470" y="490" as="sourcePoint" />
            <mxPoint x="579.5" y="490" as="targetPoint" />
          </mxGeometry>
        </mxCell>
        <mxCell id="sVpzyaRqVHjPGsMaTo8v-50" value="&lt;span style=&quot;font-size: 8px;&quot;&gt;confirme la connexion&lt;/span&gt;" style="html=1;verticalAlign=bottom;endArrow=open;dashed=1;endSize=8;curved=0;rounded=0;" edge="1" parent="1">
          <mxGeometry relative="1" as="geometry">
            <mxPoint x="469.5" y="520" as="sourcePoint" />
            <mxPoint x="360" y="520" as="targetPoint" />
          </mxGeometry>
        </mxCell>
        <mxCell id="sVpzyaRqVHjPGsMaTo8v-52" value="&lt;span style=&quot;font-size: 8px;&quot;&gt;clique sur inscription&lt;/span&gt;" style="html=1;verticalAlign=bottom;endArrow=block;curved=0;rounded=0;" edge="1" parent="1">
          <mxGeometry width="80" relative="1" as="geometry">
            <mxPoint x="250" y="550" as="sourcePoint" />
            <mxPoint x="359.5" y="550" as="targetPoint" />
          </mxGeometry>
        </mxCell>
        <mxCell id="sVpzyaRqVHjPGsMaTo8v-53" value="&lt;font style=&quot;font-size: 8px;&quot;&gt;demande formulaire&amp;nbsp;&lt;/font&gt;&lt;div style=&quot;font-size: 8px;&quot;&gt;&lt;font style=&quot;font-size: 8px;&quot;&gt;d&#39;inscription&lt;/font&gt;&lt;/div&gt;" style="html=1;verticalAlign=bottom;endArrow=block;curved=0;rounded=0;" edge="1" parent="1">
          <mxGeometry width="80" relative="1" as="geometry">
            <mxPoint x="360" y="560" as="sourcePoint" />
            <mxPoint x="469.5" y="560" as="targetPoint" />
          </mxGeometry>
        </mxCell>
        <mxCell id="sVpzyaRqVHjPGsMaTo8v-55" value="&lt;span style=&quot;font-size: 8px;&quot;&gt;affiche&lt;/span&gt;&lt;div&gt;&lt;span style=&quot;font-size: 8px;&quot;&gt;formulaire d&#39;inscription&lt;/span&gt;&lt;/div&gt;" style="html=1;verticalAlign=bottom;endArrow=open;dashed=1;endSize=8;curved=0;rounded=0;" edge="1" parent="1">
          <mxGeometry x="-0.0959" relative="1" as="geometry">
            <mxPoint x="469.5" y="590" as="sourcePoint" />
            <mxPoint x="360" y="590" as="targetPoint" />
            <mxPoint as="offset" />
          </mxGeometry>
        </mxCell>
        <mxCell id="sVpzyaRqVHjPGsMaTo8v-56" value="&lt;span style=&quot;font-size: 8px;&quot;&gt;remplir le formulaire&lt;/span&gt;" style="html=1;verticalAlign=bottom;endArrow=block;curved=0;rounded=0;" edge="1" parent="1">
          <mxGeometry width="80" relative="1" as="geometry">
            <mxPoint x="250" y="610" as="sourcePoint" />
            <mxPoint x="359.5" y="610" as="targetPoint" />
          </mxGeometry>
        </mxCell>
        <mxCell id="sVpzyaRqVHjPGsMaTo8v-57" value="&lt;span style=&quot;font-size: 8px;&quot;&gt;envoie les données&lt;/span&gt;" style="html=1;verticalAlign=bottom;endArrow=block;curved=0;rounded=0;" edge="1" parent="1">
          <mxGeometry width="80" relative="1" as="geometry">
            <mxPoint x="360" y="620" as="sourcePoint" />
            <mxPoint x="469.5" y="620" as="targetPoint" />
          </mxGeometry>
        </mxCell>
        <mxCell id="sVpzyaRqVHjPGsMaTo8v-58" value="&lt;span style=&quot;font-size: 8px;&quot;&gt;créer le client&lt;/span&gt;" style="html=1;verticalAlign=bottom;endArrow=block;curved=0;rounded=0;" edge="1" parent="1">
          <mxGeometry width="80" relative="1" as="geometry">
            <mxPoint x="470" y="630" as="sourcePoint" />
            <mxPoint x="579.5" y="630" as="targetPoint" />
          </mxGeometry>
        </mxCell>
        <mxCell id="sVpzyaRqVHjPGsMaTo8v-59" value="&lt;span style=&quot;font-size: 8px;&quot;&gt;utilisateur créé&lt;/span&gt;" style="html=1;verticalAlign=bottom;endArrow=open;dashed=1;endSize=8;curved=0;rounded=0;" edge="1" parent="1">
          <mxGeometry relative="1" as="geometry">
            <mxPoint x="579.5" y="650" as="sourcePoint" />
            <mxPoint x="470" y="650" as="targetPoint" />
          </mxGeometry>
        </mxCell>
        <mxCell id="sVpzyaRqVHjPGsMaTo8v-62" value="&lt;span style=&quot;font-size: 8px;&quot;&gt;confirmation d&#39;insciption&lt;/span&gt;" style="html=1;verticalAlign=bottom;endArrow=open;dashed=1;endSize=8;curved=0;rounded=0;" edge="1" parent="1">
          <mxGeometry relative="1" as="geometry">
            <mxPoint x="469.5" y="660" as="sourcePoint" />
            <mxPoint x="360" y="660" as="targetPoint" />
          </mxGeometry>
        </mxCell>
      </root>
    </mxGraphModel>
  </diagram>
</mxfile>
